<svg data-v-423bf9ae="" xmlns="http://www.w3.org/2000/svg" viewBox="0 0 525 90" class="iconLeft"><!----><!----><!----><g data-v-423bf9ae="" id="fa67f82a-1908-4cac-8221-c8ca59c948fc" fill="black" transform="matrix(6.256517105873957,0,0,6.256517105873957,101.94470921932023,-1.2669443554414812)"><path d="M2.44 2.86L4.30 2.86Q6.03 2.86 6.03 4.70L6.03 4.70L6.03 12.05L4.07 12.05L4.07 9.02L2.66 9.02L2.66 12.05L0.70 12.05L0.70 4.70Q0.70 2.86 2.44 2.86L2.44 2.86ZM2.66 4.47L2.66 7.50L4.07 7.50L4.07 4.47Q4.07 4.35 4.00 4.27Q3.92 4.19 3.81 4.19L3.81 4.19L2.93 4.19Q2.81 4.19 2.74 4.27Q2.66 4.35 2.66 4.47L2.66 4.47ZM10.33 5.08L10.33 5.08L10.70 5.08L10.70 6.90L9.77 6.90Q9.30 6.90 9.30 7.39L9.30 7.39L9.30 12.05L7.42 12.05L7.42 5.22L9.13 5.22L9.13 5.88Q9.53 5.08 10.33 5.08ZM16.59 6.93L16.59 7.91L14.71 7.91L14.71 6.71Q14.71 6.59 14.64 6.51Q14.56 6.43 14.45 6.43L14.45 6.43L13.68 6.43Q13.57 6.43 13.49 6.51Q13.41 6.59 13.41 6.71L13.41 6.71L13.41 10.57Q13.41 10.68 13.49 10.77Q13.57 10.85 13.68 10.85L13.68 10.85L14.45 10.85Q14.56 10.85 14.64 10.77Q14.71 10.68 14.71 10.57L14.71 10.57L14.71 9.37L16.59 9.37L16.59 10.35Q16.59 12.19 14.85 12.19L14.85 12.19L13.27 12.19Q11.54 12.19 11.54 10.35L11.54 10.35L11.54 6.93Q11.54 5.08 13.27 5.08L13.27 5.08L14.85 5.08Q16.59 5.08 16.59 6.93L16.59 6.93ZM21.25 5.73L21.25 5.22L22.83 5.22L22.83 12.05L21.25 12.05L21.25 11.55Q20.82 12.19 19.81 12.19L19.81 12.19L19.52 12.19Q17.78 12.19 17.78 10.35L17.78 10.35L17.78 6.93Q17.78 5.08 19.52 5.08L19.52 5.08L19.81 5.08Q20.82 5.08 21.25 5.73L21.25 5.73ZM20.96 10.57L20.96 10.57L20.96 6.71Q20.96 6.59 20.88 6.51Q20.80 6.43 20.69 6.43L20.69 6.43L19.92 6.43Q19.81 6.43 19.73 6.51Q19.66 6.59 19.66 6.71L19.66 6.71L19.66 10.57Q19.66 10.68 19.73 10.77Q19.81 10.85 19.92 10.85L19.92 10.85L20.69 10.85Q20.80 10.85 20.88 10.77Q20.96 10.68 20.96 10.57ZM25.84 5.08L26.14 5.08Q26.85 5.08 27.29 5.42L27.29 5.42L27.29 3.00L29.16 3.00L29.16 12.05L27.58 12.05L27.58 11.55Q27.15 12.19 26.14 12.19L26.14 12.19L25.84 12.19Q24.11 12.19 24.11 10.35L24.11 10.35L24.11 6.93Q24.11 5.08 25.84 5.08L25.84 5.08ZM27.29 10.57L27.29 10.57L27.29 6.71Q27.29 6.59 27.21 6.51Q27.13 6.43 27.02 6.43L27.02 6.43L26.25 6.43Q26.14 6.43 26.06 6.51Q25.98 6.59 25.98 6.71L25.98 6.71L25.98 10.57Q25.98 10.68 26.06 10.77Q26.14 10.85 26.25 10.85L26.25 10.85L27.02 10.85Q27.13 10.85 27.21 10.77Q27.29 10.68 27.29 10.57ZM32.35 4.37Q32.05 4.66 31.63 4.66Q31.21 4.66 30.90 4.36Q30.59 4.06 30.59 3.63Q30.59 3.21 30.90 2.90Q31.21 2.60 31.63 2.60Q32.05 2.60 32.35 2.90Q32.65 3.21 32.65 3.64Q32.65 4.07 32.35 4.37ZM32.56 12.05L30.69 12.05L30.69 5.22L32.56 5.22L32.56 12.05ZM37.35 5.73L37.35 5.22L38.93 5.22L38.93 12.05L37.35 12.05L37.35 11.55Q36.92 12.19 35.91 12.19L35.91 12.19L35.62 12.19Q33.88 12.19 33.88 10.35L33.88 10.35L33.88 6.93Q33.88 5.08 35.62 5.08L35.62 5.08L35.91 5.08Q36.92 5.08 37.35 5.73L37.35 5.73ZM37.06 10.57L37.06 10.57L37.06 6.71Q37.06 6.59 36.98 6.51Q36.90 6.43 36.79 6.43L36.79 6.43L36.02 6.43Q35.91 6.43 35.83 6.51Q35.76 6.59 35.76 6.71L35.76 6.71L35.76 10.57Q35.76 10.68 35.83 10.77Q35.91 10.85 36.02 10.85L36.02 10.85L36.79 10.85Q36.90 10.85 36.98 10.77Q37.06 10.68 37.06 10.57ZM44.84 2.86L46.70 2.86Q48.44 2.86 48.44 4.70L48.44 4.70L48.44 12.05L46.48 12.05L46.48 9.02L45.07 9.02L45.07 12.05L43.11 12.05L43.11 4.70Q43.11 2.86 44.84 2.86L44.84 2.86ZM45.07 4.47L45.07 7.50L46.48 7.50L46.48 4.47Q46.48 4.35 46.40 4.27Q46.33 4.19 46.21 4.19L46.21 4.19L45.33 4.19Q45.22 4.19 45.14 4.27Q45.07 4.35 45.07 4.47L45.07 4.47ZM51.74 4.37Q51.44 4.66 51.02 4.66Q50.60 4.66 50.29 4.36Q49.98 4.06 49.98 3.63Q49.98 3.21 50.29 2.90Q50.60 2.60 51.02 2.60Q51.44 2.60 51.74 2.90Q52.04 3.21 52.04 3.64Q52.04 4.07 51.74 4.37ZM51.95 12.05L50.08 12.05L50.08 5.22L51.95 5.22L51.95 12.05ZM55.05 7.77L56.49 7.77Q58.23 7.77 58.23 9.62L58.23 9.62L58.23 10.35Q58.23 12.19 56.49 12.19L56.49 12.19L54.94 12.19Q53.20 12.19 53.20 10.35L53.20 10.35L53.20 9.91L54.94 9.91L54.94 10.53Q54.94 10.64 55.01 10.72Q55.09 10.81 55.20 10.81L55.20 10.81L56.35 10.81Q56.46 10.81 56.54 10.72Q56.62 10.64 56.62 10.53L56.62 10.53L56.62 9.69Q56.62 9.58 56.54 9.49Q56.46 9.41 56.35 9.41L56.35 9.41L54.91 9.41Q53.17 9.41 53.17 7.56L53.17 7.56L53.17 6.93Q53.17 5.08 54.91 5.08L54.91 5.08L56.38 5.08Q58.11 5.08 58.11 6.93L58.11 6.93L58.11 7.18L56.38 7.18L56.38 6.75Q56.38 6.64 56.30 6.55Q56.22 6.47 56.11 6.47L56.11 6.47L55.05 6.47Q54.94 6.47 54.86 6.55Q54.78 6.64 54.78 6.75L54.78 6.75L54.78 7.49Q54.78 7.60 54.86 7.69Q54.94 7.77 55.05 7.77L55.05 7.77ZM61.21 3.00L61.21 12.05L59.33 12.05L59.33 3.00L61.21 3.00ZM64.20 5.08L65.79 5.08Q67.52 5.08 67.52 6.93L67.52 6.93L67.52 9.14L64.34 9.14L64.34 10.57Q64.34 10.68 64.42 10.77Q64.50 10.85 64.61 10.85L64.61 10.85L65.38 10.85Q65.49 10.85 65.57 10.77Q65.65 10.68 65.65 10.57L65.65 10.57L65.65 9.81L67.52 9.81L67.52 10.35Q67.52 12.19 65.79 12.19L65.79 12.19L64.20 12.19Q62.47 12.19 62.47 10.35L62.47 10.35L62.47 6.93Q62.47 5.08 64.20 5.08L64.20 5.08ZM64.34 6.65L64.34 7.91L65.65 7.91L65.65 6.65Q65.65 6.54 65.57 6.45Q65.49 6.37 65.38 6.37L65.38 6.37L64.61 6.37Q64.50 6.37 64.42 6.45Q64.34 6.54 64.34 6.65L64.34 6.65Z"></path></g><!----><g data-v-423bf9ae="" id="b2a98951-6623-417e-8ef1-3e0c727cfbf3" transform="matrix(1.113861449243231,0,0,1.113861449243231,-12.448765447754319,-10.093069956169714)" stroke="none" fill="black"><path d="M81.9 47.2V22.9H32.3V9.6h-21V17h13.6v47.1h63.6v-7.4H32.3v-9.6h49.6zM32.3 29.1h42.9v12H32.3v-12zM35.9 68c-6.2 0-11.2 5-11.2 11.2 0 6.2 5 11.2 11.2 11.2s11.2-5 11.2-11.2c0-6.2-5-11.2-11.2-11.2zm0 14.5c-1.8 0-3.3-1.5-3.3-3.3 0-1.8 1.5-3.3 3.3-3.3s3.3 1.5 3.3 3.3c0 1.8-1.5 3.3-3.3 3.3zM77.6 68c-6.2 0-11.2 5-11.2 11.2 0 6.2 5 11.2 11.2 11.2 6.2 0 11.2-5 11.2-11.2 0-6.2-5-11.2-11.2-11.2zm0 14.5c-1.8 0-3.3-1.5-3.3-3.3 0-1.8 1.5-3.3 3.3-3.3 1.8 0 3.3 1.5 3.3 3.3 0 1.8-1.5 3.3-3.3 3.3z"></path></g><!----></svg>